<?xml version="1.0" standalone="no"?>
<!DOCTYPE svg PUBLIC "-//W3C//DTD SVG 20010904//EN"
 "http://www.w3.org/TR/2001/REC-SVG-20010904/DTD/svg10.dtd">
<svg version="1.0" xmlns="http://www.w3.org/2000/svg"
 width="480.000000pt" height="480.000000pt" viewBox="0 0 480.000000 480.000000"
 preserveAspectRatio="xMidYMid meet">
<metadata>
Created by potrace 1.14, written by Peter Selinger 2001-2017
</metadata>
<g transform="translate(0.000000,480.000000) scale(0.100000,-0.100000)"
fill="#000000" stroke="none">
<path d="M2017 4764 c-1 -1 -44 -4 -96 -8 -252 -18 -542 -113 -761 -249 -201
-126 -401 -314 -520 -492 -19 -27 -38 -52 -42 -53 -4 -2 -6 -8 -2 -13 3 -5 0
-9 -5 -9 -6 0 -11 -6 -11 -13 0 -7 -8 -22 -17 -33 -10 -11 -19 -26 -21 -34 -2
-8 -7 -17 -10 -20 -4 -3 -8 -12 -10 -20 -2 -8 -11 -23 -19 -32 -9 -10 -13 -18
-10 -18 4 0 -2 -17 -13 -37 -11 -21 -20 -44 -20 -51 0 -7 -4 -11 -8 -8 -4 2
-8 -3 -9 -12 -2 -34 -13 -67 -23 -70 -6 -2 -8 -7 -5 -12 3 -4 -1 -23 -9 -41
-14 -34 -16 -41 -16 -60 0 -5 -5 -7 -11 -3 -8 5 -8 1 0 -14 7 -14 8 -23 1 -27
-6 -4 -8 -10 -5 -15 3 -5 1 -11 -4 -14 -5 -4 -8 -18 -5 -31 2 -14 1 -25 -4
-25 -5 0 -9 -6 -10 -12 0 -7 -3 -33 -6 -58 -10 -73 -15 -151 -16 -215 -1 -32
-6 -66 -13 -74 -8 -10 -8 -13 -1 -8 14 8 24 -76 11 -99 -5 -8 -4 -14 3 -14 7
0 9 -8 5 -20 -3 -11 -3 -20 2 -20 4 0 8 -18 7 -40 0 -22 2 -40 6 -40 4 0 6
-10 5 -22 -1 -13 1 -30 6 -39 5 -10 3 -21 -4 -29 -9 -10 -9 -11 1 -6 12 7 14
1 15 -41 0 -13 4 -23 10 -23 5 0 7 -9 4 -20 -3 -11 -1 -20 3 -20 5 0 7 -9 5
-20 -2 -11 1 -20 6 -20 6 0 9 -8 7 -17 -2 -10 3 -23 11 -29 13 -10 13 -14 1
-28 -12 -15 -11 -18 8 -23 21 -5 26 -18 22 -57 -1 -11 3 -15 9 -12 6 4 11 0
11 -8 0 -9 9 -32 20 -51 11 -20 17 -41 14 -47 -4 -6 -2 -8 4 -4 9 6 18 -8 24
-39 1 -5 8 -16 15 -23 7 -8 11 -17 8 -22 -3 -4 2 -11 11 -14 10 -4 13 -13 9
-28 -4 -16 -3 -19 3 -9 7 9 12 10 16 2 4 -6 5 -11 2 -11 -3 0 3 -9 15 -21 16
-16 18 -23 8 -35 -10 -12 -9 -13 4 -8 10 3 22 -4 34 -23 10 -15 26 -36 36 -45
16 -17 21 -31 18 -50 0 -4 6 -5 15 -1 13 5 15 1 10 -18 -3 -13 -3 -18 0 -11 5
10 12 8 30 -9 13 -12 24 -29 24 -36 0 -8 5 -11 11 -7 7 4 10 1 7 -7 -3 -8 -11
-13 -17 -11 -7 1 -10 -2 -6 -8 5 -8 11 -8 20 0 10 8 19 5 39 -15 27 -27 34
-41 14 -29 -7 4 -8 3 -4 -5 4 -6 12 -9 17 -5 6 3 28 -12 50 -34 21 -22 39 -38
39 -36 0 3 7 -1 15 -10 8 -8 15 -21 15 -28 0 -10 2 -10 9 1 7 11 12 10 22 -8
8 -11 20 -21 27 -21 7 0 15 -7 18 -15 4 -8 10 -12 15 -9 5 3 9 2 9 -3 0 -4 14
-14 30 -21 17 -8 28 -18 24 -23 -3 -5 2 -9 12 -9 24 0 95 -42 91 -54 -3 -6
-15 -10 -28 -8 -23 3 -23 2 -4 -14 14 -11 15 -14 4 -11 -12 4 -15 -1 -13 -19
1 -13 -2 -24 -7 -24 -5 0 -8 -3 -8 -7 1 -5 0 -11 -1 -15 -1 -5 -4 -12 -5 -18
-1 -5 -4 -11 -5 -12 -7 -8 -4 -145 3 -141 5 3 6 -5 2 -17 -5 -14 -3 -20 3 -16
6 3 16 -9 23 -27 7 -17 15 -36 17 -41 3 -5 -1 -5 -8 -1 -8 5 -11 4 -7 -3 4 -5
17 -8 29 -5 14 4 26 0 34 -12 8 -11 14 -13 14 -6 0 7 4 10 10 6 5 -3 7 -13 4
-23 -4 -11 -3 -13 3 -5 5 7 15 10 23 9 63 -14 80 -20 80 -29 0 -6 3 -8 6 -4 3
3 18 -5 33 -19 22 -21 24 -26 11 -35 -12 -8 -10 -9 8 -4 21 6 23 5 13 -13 -6
-11 -14 -22 -18 -24 -5 -3 -3 -3 4 -2 7 2 15 -1 18 -6 4 -6 0 -10 -7 -10 -11
0 -11 -2 0 -9 11 -6 10 -11 -3 -25 -15 -15 -15 -16 2 -16 10 0 14 -4 8 -8 -13
-9 -16 -42 -3 -42 5 0 7 -4 4 -8 -10 -17 -14 -62 -6 -62 6 0 6 -10 0 -25 -6
-15 -6 -26 1 -30 5 -4 6 -11 2 -18 -10 -17 -10 -57 0 -57 5 0 4 -7 -3 -15 -10
-12 -10 -15 0 -15 10 0 10 -3 0 -15 -7 -8 -9 -15 -5 -15 4 0 2 -7 -5 -15 -11
-13 -10 -14 3 -10 17 7 19 -25 2 -37 -7 -5 -7 -8 0 -8 6 0 11 -33 13 -73 4
-101 7 -125 15 -133 3 -4 2 -16 -4 -27 -8 -14 -8 -18 0 -13 10 7 15 -12 14
-51 0 -6 5 -10 11 -7 6 2 20 -9 31 -25 13 -21 22 -26 27 -18 4 7 8 7 8 2 0 -6
12 -12 27 -13 15 -1 30 -7 34 -13 4 -7 9 -7 13 -1 6 10 39 9 71 -4 11 -4 17
-3 12 2 -10 10 91 35 116 28 9 -3 14 -10 11 -16 -5 -7 -2 -8 6 -3 10 6 9 11
-5 21 -17 13 -16 15 13 25 18 6 32 16 32 21 0 6 7 5 16 -2 8 -8 14 -9 13 -4
-4 21 2 35 11 29 6 -3 10 -1 10 5 0 6 7 18 15 26 8 9 15 13 15 10 0 -3 19 15
42 40 23 25 47 43 55 40 7 -3 12 -2 12 2 -3 20 3 31 21 37 11 4 18 11 14 16
-3 6 3 13 15 16 12 3 21 10 21 17 0 6 15 21 32 33 26 18 35 20 47 10 14 -11
14 -10 2 5 -11 15 -11 21 -1 33 7 9 20 13 27 10 9 -3 13 0 11 7 -5 13 21 48
35 48 5 0 6 -7 3 -16 -3 -9 -2 -12 5 -9 6 4 8 13 5 20 -6 16 26 55 44 55 9 0
7 -7 -6 -22 -12 -14 -13 -18 -3 -10 9 6 19 10 22 7 4 -3 5 -2 2 2 -3 3 0 12 7
20 6 8 7 13 2 12 -24 -4 -25 3 0 26 16 15 33 22 44 19 13 -5 14 -4 3 4 -12 8
-9 16 17 41 17 17 36 31 42 31 6 0 9 4 6 9 -7 11 19 33 28 23 4 -4 6 0 4 8 -2
8 2 14 9 15 6 0 15 4 20 9 5 5 3 6 -4 2 -25 -14 -12 5 31 49 24 25 41 47 38
50 -3 3 0 5 7 5 7 0 10 3 8 8 -3 4 1 13 9 20 12 11 14 10 14 -6 0 -10 -6 -24
-12 -31 -10 -10 -10 -12 -1 -7 9 5 11 -3 7 -31 -2 -21 -9 -40 -14 -41 -6 -2
-8 -7 -5 -11 2 -5 -7 -33 -22 -62 -14 -30 -26 -60 -26 -66 0 -7 -4 -13 -9 -13
-4 0 -8 -5 -8 -11 0 -11 -15 -47 -51 -125 -10 -23 -19 -46 -19 -53 0 -6 -8
-23 -17 -38 -10 -14 -18 -32 -19 -38 -1 -7 -14 -37 -29 -66 -15 -30 -26 -56
-26 -59 2 -14 -12 -40 -21 -40 -6 0 -9 -3 -5 -6 3 -4 0 -19 -9 -35 -14 -28
-14 -29 8 -30 13 -1 25 -1 28 -1 3 0 100 3 215 6 116 4 266 9 335 11 116 4
222 7 630 20 85 3 214 7 285 10 72 3 222 8 335 11 186 6 320 10 392 13 24 1
33 14 89 125 l63 124 -85 80 c-115 110 -509 488 -694 667 -34 33 -138 132
-230 220 -91 88 -216 208 -276 266 -59 59 -111 104 -115 100 -4 -3 -4 0 1 8 4
7 3 16 -4 20 -8 5 -4 16 14 35 14 15 25 31 25 37 0 5 5 9 10 9 6 0 10 8 11 18
0 10 3 12 6 5 9 -23 20 -14 15 12 -2 14 0 25 7 25 5 0 8 -7 5 -15 -4 -8 -2
-15 4 -15 6 0 9 8 7 18 -3 18 24 72 36 72 4 0 9 9 12 21 3 12 10 18 16 15 5
-4 13 -1 17 5 4 8 3 9 -4 5 -18 -11 -15 -2 16 51 16 26 31 56 35 66 4 11 12
15 18 11 8 -5 9 -3 4 5 -7 13 12 60 30 73 5 4 6 8 2 8 -4 0 -2 10 5 23 7 12
13 24 13 27 0 3 4 18 8 33 7 25 10 27 24 15 15 -12 15 -11 3 9 -11 17 -11 27
-3 45 12 24 25 62 29 87 2 8 9 18 16 22 7 5 8 9 2 9 -12 0 -12 36 1 47 4 5 5
2 0 -6 -5 -9 -4 -12 2 -8 5 3 8 21 6 39 -3 19 -1 28 4 22 5 -7 9 14 10 50 3
70 5 86 16 104 5 7 3 12 -4 12 -7 0 -8 4 -2 13 11 14 11 27 -1 46 -6 9 -5 12
1 8 7 -4 10 33 10 113 -1 66 -3 120 -6 120 -4 0 -6 20 -6 44 -1 29 3 42 10 38
5 -3 4 1 -3 10 -7 9 -14 32 -15 52 -1 20 -6 36 -10 36 -5 0 -6 4 -3 8 4 7 -2
41 -20 107 -3 11 -7 29 -8 40 -2 11 -4 20 -5 20 -3 0 -12 36 -13 53 -1 6 -5
12 -10 12 -4 0 -8 9 -8 20 0 11 -4 28 -9 38 -5 9 -14 28 -19 42 -46 107 -86
188 -117 235 -19 30 -35 60 -35 65 0 6 -4 10 -10 10 -5 0 -10 5 -10 11 0 6
-10 23 -22 38 -13 15 -34 43 -48 61 -74 100 -195 221 -310 309 -83 64 -186
131 -199 131 -5 0 -11 3 -13 8 -4 10 -138 74 -233 112 -78 31 -241 77 -305 86
-19 2 -44 6 -55 9 -50 10 -299 25 -308 19z m693 -3370 c0 -8 -4 -12 -10 -9 -5
3 -10 1 -10 -5 0 -5 -15 -19 -32 -30 -18 -11 -29 -20 -24 -20 5 0 -8 -15 -28
-34 -23 -22 -43 -33 -56 -31 -12 2 -18 0 -15 -6 4 -5 11 -7 16 -4 26 17 2 -15
-56 -73 -36 -35 -65 -66 -65 -68 0 -1 -10 -14 -22 -27 -13 -13 -70 -74 -128
-137 -202 -218 -236 -254 -335 -352 -143 -142 -213 -185 -221 -133 -2 11 -7
21 -13 23 -5 2 -7 10 -4 18 3 8 2 22 -2 32 -8 17 -14 53 -18 102 -2 14 -6 31
-10 38 -5 7 -3 12 3 12 7 0 8 5 3 13 -11 16 -13 52 -17 247 -2 124 1 170 11
187 7 12 14 30 16 40 1 10 10 32 19 50 10 21 12 35 6 41 -7 7 -2 15 13 23 28
15 78 19 86 7 2 -5 13 -6 23 -3 10 3 22 0 26 -6 4 -8 3 -9 -4 -5 -7 4 -12 2
-12 -3 0 -17 18 -13 29 7 6 9 11 12 11 5 0 -6 9 -9 21 -6 12 4 25 0 30 -8 5
-8 9 -9 9 -3 0 5 11 10 24 10 14 0 22 -4 20 -8 -6 -10 10 -11 20 -1 10 10 46
11 40 1 -7 -11 3 -10 26 2 13 7 21 7 26 -1 4 -8 9 -7 15 2 7 11 9 9 9 -6 0
-16 2 -17 9 -6 12 18 100 24 119 9 10 -9 12 -8 10 3 -2 9 6 14 23 15 14 1 31
4 38 8 8 5 14 0 18 -13 3 -12 9 -21 15 -21 5 0 4 9 -2 20 -9 18 -7 20 17 22
27 1 42 3 53 8 3 1 12 3 20 5 8 2 25 7 38 11 14 4 22 2 22 -5 0 -7 5 -9 10 -6
6 4 8 10 5 14 -2 5 9 11 25 15 38 7 46 6 42 -6 -1 -5 2 -7 8 -3 6 3 8 10 5 14
-2 5 19 18 48 29 28 11 53 20 55 21 1 0 2 -6 2 -15z m-975 -84 c3 -5 1 -10 -4
-10 -6 0 -11 5 -11 10 0 6 2 10 4 10 3 0 8 -4 11 -10z"/>
<path d="M2625 1360 c-3 -6 1 -7 9 -4 18 7 21 14 7 14 -6 0 -13 -4 -16 -10z"/>
<path d="M2550 1330 c-6 -11 -9 -20 -8 -20 2 0 11 9 21 20 9 11 13 20 7 20 -5
0 -14 -9 -20 -20z"/>
<path d="M2476 1322 c-3 -5 1 -9 9 -9 8 0 12 4 9 9 -3 4 -7 8 -9 8 -2 0 -6 -4
-9 -8z"/>
<path d="M2395 1300 c-3 -5 -1 -10 4 -10 6 0 11 5 11 10 0 6 -2 10 -4 10 -3 0
-8 -4 -11 -10z"/>
<path d="M2444 1295 c-4 -8 -11 -12 -17 -8 -6 4 -7 1 -3 -6 5 -7 11 -10 14 -7
3 3 12 0 21 -6 13 -10 14 -10 4 2 -16 18 -17 34 -1 24 7 -4 8 -3 4 4 -10 16
-15 15 -22 -3z"/>
<path d="M1740 1280 c-9 -6 -10 -10 -3 -10 6 0 15 5 18 10 8 12 4 12 -15 0z"/>
<path d="M1807 1279 c7 -7 15 -10 18 -7 3 3 -2 9 -12 12 -14 6 -15 5 -6 -5z"/>
<path d="M2280 1276 c0 -8 4 -17 9 -20 5 -4 7 3 4 14 -6 23 -13 26 -13 6z"/>
<path d="M1915 1271 c-6 -11 13 -26 22 -17 4 3 1 6 -6 6 -7 0 -9 5 -6 10 3 6
4 10 1 10 -3 0 -7 -4 -11 -9z"/>
<path d="M2186 1263 c-6 -14 -5 -15 5 -6 7 7 10 15 7 18 -3 3 -9 -2 -12 -12z"/>
<path d="M1744 1243 c-14 -23 -15 -26 -1 -15 18 15 41 7 31 -11 -4 -7 -3 -8 1
-4 11 9 16 37 7 36 -20 -3 -25 2 -12 11 8 5 10 10 4 10 -7 0 -20 -12 -30 -27z"/>
<path d="M1959 1268 c-5 -18 -6 -39 -2 -34 4 3 11 2 17 -4 8 -6 12 -3 12 9 0
12 -5 17 -15 13 -9 -3 -12 -1 -7 6 4 7 5 12 2 12 -3 0 -6 -1 -7 -2z"/>
<path d="M2019 1268 c0 -2 -2 -13 -3 -26 -3 -21 -2 -21 18 -5 12 10 23 20 26
22 3 2 -6 0 -19 -4 -16 -5 -21 -4 -17 4 4 6 5 11 2 11 -3 0 -6 -1 -7 -2z"/>
<path d="M2075 1261 c-9 -15 15 -25 28 -12 9 9 7 10 -7 5 -13 -5 -17 -4 -12 4
4 7 5 12 2 12 -3 0 -7 -4 -11 -9z"/>
<path d="M2150 1261 c0 -6 4 -13 10 -16 6 -3 7 1 4 9 -7 18 -14 21 -14 7z"/>
<path d="M2233 1250 c1 -11 5 -20 9 -20 3 0 6 9 5 20 -1 11 -5 20 -9 20 -3 0
-6 -9 -5 -20z"/>
<path d="M2375 1240 c2 -27 10 -33 12 -10 1 11 -2 22 -6 24 -4 3 -7 -4 -6 -14z"/>
<path d="M1875 1241 c-3 -5 -2 -12 3 -15 5 -3 9 1 9 9 0 17 -3 19 -12 6z"/>
<path d="M2117 1232 c-15 -16 -15 -19 -2 -19 8 0 13 3 10 5 -3 3 0 11 6 19 17
20 5 16 -14 -5z"/>
<path d="M2333 1225 c0 -8 4 -12 9 -9 5 3 6 10 3 15 -9 13 -12 11 -12 -6z"/>
<path d="M2066 1218 c3 -5 10 -6 15 -3 13 9 11 12 -6 12 -8 0 -12 -4 -9 -9z"/>
<path d="M2186 1218 c3 -4 9 -8 15 -8 5 0 9 4 9 8 0 5 -7 9 -15 9 -8 0 -12 -4
-9 -9z"/>
<path d="M1936 1207 c3 -10 9 -15 12 -12 3 3 0 11 -7 18 -10 9 -11 8 -5 -6z"/>
<path d="M1690 966 c0 -2 7 -7 16 -10 8 -3 12 -2 9 4 -6 10 -25 14 -25 6z"/>
<path d="M3655 2271 c-3 -5 -2 -12 3 -15 5 -3 9 1 9 9 0 17 -3 19 -12 6z"/>
<path d="M510 2160 c0 -5 5 -10 11 -10 5 0 7 5 4 10 -3 6 -8 10 -11 10 -2 0
-4 -4 -4 -10z"/>
<path d="M3510 2030 c-9 -6 -10 -10 -3 -10 6 0 15 5 18 10 8 12 4 12 -15 0z"/>
<path d="M627 1999 c7 -9 10 -19 6 -22 -3 -4 -1 -7 5 -7 17 0 15 16 -5 31 -16
12 -17 12 -6 -2z"/>
<path d="M680 1951 c0 -6 4 -13 10 -16 6 -3 7 1 4 9 -7 18 -14 21 -14 7z"/>
<path d="M655 1940 c3 -5 8 -10 11 -10 2 0 4 5 4 10 0 6 -5 10 -11 10 -5 0 -7
-4 -4 -10z"/>
<path d="M3430 1919 c0 -5 5 -7 10 -4 6 3 10 8 10 11 0 2 -4 4 -10 4 -5 0 -10
-5 -10 -11z"/>
<path d="M3413 1875 c0 -8 4 -12 9 -9 4 3 8 9 8 15 0 5 -4 9 -8 9 -5 0 -9 -7
-9 -15z"/>
<path d="M755 1863 c3 -3 0 -11 -5 -18 -7 -8 -5 -12 4 -12 14 0 16 22 3 32 -4
3 -5 2 -2 -2z"/>
<path d="M756 1807 c3 -10 9 -15 12 -12 3 3 0 11 -7 18 -10 9 -11 8 -5 -6z"/>
<path d="M800 1775 c-9 -11 -10 -19 -3 -26 8 -8 11 -6 10 7 -1 11 4 18 11 16
8 -1 11 2 7 8 -8 13 -10 13 -25 -5z"/>
<path d="M935 1620 c3 -5 8 -10 11 -10 2 0 4 5 4 10 0 6 -5 10 -11 10 -5 0 -7
-4 -4 -10z"/>
<path d="M1054 1563 c1 -12 6 -26 10 -30 4 -5 6 -1 4 7 -2 8 3 14 10 12 8 -1
11 2 7 8 -3 6 -10 8 -15 5 -4 -3 -11 1 -14 7 -2 7 -4 3 -2 -9z"/>
<path d="M1113 1525 c0 -8 4 -15 9 -15 4 0 8 4 8 9 0 6 -4 12 -8 15 -5 3 -9
-1 -9 -9z"/>
<path d="M1155 1501 c-3 -5 -2 -12 3 -15 5 -3 9 1 9 9 0 17 -3 19 -12 6z"/>
<path d="M1190 1500 c8 -5 20 -10 25 -10 6 0 3 5 -5 10 -8 5 -19 10 -25 10 -5
0 -3 -5 5 -10z"/>
<path d="M1160 1086 c0 -2 8 -10 18 -17 15 -13 16 -12 3 4 -13 16 -21 21 -21
13z"/>
<path d="M1234 1079 c-5 -8 -3 -9 6 -4 7 4 16 2 22 -6 8 -12 9 -12 6 0 -6 20
-24 25 -34 10z"/>
<path d="M1320 1045 c0 -2 6 -8 13 -14 10 -8 14 -7 14 2 0 8 -6 14 -14 14 -7
0 -13 -1 -13 -2z"/>
<path d="M1389 1012 c5 -9 10 -21 11 -27 3 -19 6 -14 6 10 0 13 -6 27 -13 29
-10 4 -11 1 -4 -12z"/>
<path d="M1435 989 c-4 -6 -5 -12 -2 -15 2 -3 7 2 10 11 7 17 1 20 -8 4z"/>
<path d="M2628 863 c7 -3 16 -2 19 1 4 3 -2 6 -13 5 -11 0 -14 -3 -6 -6z"/>
<path d="M2611 834 c0 -11 3 -14 6 -6 3 7 2 16 -1 19 -3 4 -6 -2 -5 -13z"/>
<path d="M2539 738 c-6 -20 -6 -39 0 -42 4 -3 7 6 7 20 0 20 -4 32 -7 22z"/>
<path d="M2227 419 c7 -7 15 -10 18 -7 3 3 -2 9 -12 12 -14 6 -15 5 -6 -5z"/>
<path d="M2179 393 c-12 -16 -12 -17 2 -6 9 7 19 10 22 6 4 -3 7 -1 7 5 0 17
-16 15 -31 -5z"/>
<path d="M2150 356 c7 -7 13 -7 20 0 6 6 3 10 -10 10 -13 0 -16 -4 -10 -10z"/>
<path d="M2070 308 c-10 -21 -10 -21 3 -6 11 14 16 15 27 5 12 -10 12 -9 1 6
-17 22 -18 22 -31 -5z"/>
<path d="M2145 320 c-3 -6 1 -7 9 -4 18 7 21 14 7 14 -6 0 -13 -4 -16 -10z"/>
<path d="M2055 251 c-3 -5 -2 -12 3 -15 5 -3 9 1 9 9 0 17 -3 19 -12 6z"/>
<path d="M1910 161 c0 -3 14 -7 30 -7 17 -1 30 1 30 5 0 3 -13 7 -30 7 -16 1
-30 -1 -30 -5z"/>
<path d="M1536 138 c3 -5 10 -6 15 -3 13 9 11 12 -6 12 -8 0 -12 -4 -9 -9z"/>
<path d="M1833 133 c4 -3 -1 -12 -11 -20 -15 -13 -15 -13 4 -4 15 7 25 7 35
-2 7 -7 5 -2 -5 11 -11 12 -21 22 -24 22 -3 0 -2 -3 1 -7z"/>
<path d="M1594 119 c-4 -7 -3 -9 4 -5 5 3 13 0 15 -6 4 -9 6 -10 6 -1 1 17
-16 25 -25 12z"/>
<path d="M1897 115 c-4 -8 -3 -16 1 -19 4 -3 9 4 9 15 2 23 -3 25 -10 4z"/>
<path d="M1555 100 c3 -5 8 -10 11 -10 2 0 4 5 4 10 0 6 -5 10 -11 10 -5 0 -7
-4 -4 -10z"/>
<path d="M1752 102 c-9 -6 -6 -11 11 -19 18 -9 24 -8 24 2 0 8 -7 11 -15 7
-10 -3 -13 -1 -8 6 8 14 6 15 -12 4z"/>
<path d="M1635 90 c-4 -6 -10 -8 -15 -5 -4 3 -7 -2 -6 -10 1 -8 4 -16 7 -17 2
-2 3 -1 1 1 -1 2 5 13 15 23 9 10 13 18 10 18 -3 0 -9 -5 -12 -10z"/>
<path d="M1680 60 c-9 -6 -10 -10 -3 -10 6 0 15 5 18 10 8 12 4 12 -15 0z"/>
<path d="M1747 59 c7 -7 15 -10 18 -7 3 3 -2 9 -12 12 -14 6 -15 5 -6 -5z"/>
</g>
</svg>
